<svg width="134" height="32" viewBox="0 0 134 32" fill="none" xmlns="http://www.w3.org/2000/svg">
<path d="M43.5786 23.6667V8.15158H49.1784C50.3956 8.15158 51.4056 8.35865 52.2085 8.77279C53.0165 9.18694 53.6199 9.76017 54.0188 10.4925C54.4177 11.2198 54.6172 12.0607 54.6172 13.0152C54.6172 13.9647 54.4151 14.8006 54.0111 15.5228C53.6123 16.24 53.0088 16.798 52.2008 17.197C51.3979 17.596 50.3879 17.7955 49.1708 17.7955H44.9287V15.7804H48.956C49.7231 15.7804 50.347 15.6718 50.8277 15.4546C51.3135 15.2374 51.6689 14.9218 51.894 14.5076C52.119 14.0935 52.2315 13.596 52.2315 13.0152C52.2315 12.4294 52.1164 11.9218 51.8863 11.4925C51.6613 11.0632 51.3058 10.7349 50.82 10.5076C50.3393 10.2753 49.7077 10.1592 48.9253 10.1592H45.9489V23.6667H43.5786ZM51.334 16.6667L55.2155 23.6667H52.5153L48.7105 16.6667H51.334Z" fill="url(#paint0_linear_29_484)"/>
<path d="M61.8158 23.9016C60.6549 23.9016 59.6552 23.6566 58.8165 23.1667C57.9829 22.6718 57.3385 21.9773 56.8834 21.0834C56.4334 20.1844 56.2083 19.1314 56.2083 17.9243C56.2083 16.7324 56.4334 15.6819 56.8834 14.7728C57.3385 13.8637 57.9727 13.1541 58.7858 12.644C59.604 12.1339 60.5603 11.8789 61.6547 11.8789C62.3196 11.8789 62.9639 11.9874 63.5878 12.2046C64.2117 12.4218 64.7717 12.7627 65.2678 13.2273C65.7638 13.692 66.155 14.2955 66.4414 15.0379C66.7278 15.7753 66.871 16.6718 66.871 17.7273V18.5304H57.5047V16.8334H64.6234C64.6234 16.2374 64.5007 15.7097 64.2552 15.2501C64.0097 14.7854 63.6645 14.4193 63.2196 14.1516C62.7798 13.8839 62.2633 13.7501 61.6701 13.7501C61.0257 13.7501 60.4632 13.9066 59.9825 14.2198C59.5069 14.5278 59.1387 14.9319 58.8778 15.4319C58.6221 15.9268 58.4943 16.4647 58.4943 17.0455V18.3713C58.4943 19.1491 58.6324 19.8107 58.9085 20.3561C59.1898 20.9016 59.581 21.3182 60.0822 21.6061C60.5834 21.889 61.1689 22.0304 61.8388 22.0304C62.2735 22.0304 62.6699 21.9698 63.0278 21.8486C63.3858 21.7223 63.6952 21.5354 63.956 21.2879C64.2168 21.0405 64.4163 20.7349 64.5544 20.3713L66.7252 20.7576C66.5514 21.389 66.2394 21.942 65.7894 22.4167C65.3445 22.8864 64.7845 23.2526 64.1094 23.5152C63.4395 23.7728 62.675 23.9016 61.8158 23.9016Z" fill="url(#paint1_linear_29_484)"/>
<path d="M72.4127 23.9243C71.6661 23.9243 70.9911 23.7879 70.3876 23.5152C69.7842 23.2374 69.306 22.8359 68.9531 22.3107C68.6054 21.7854 68.4315 21.1415 68.4315 20.3789C68.4315 19.7223 68.5594 19.1819 68.8151 18.7576C69.0708 18.3334 69.4159 17.9975 69.8506 17.7501C70.2853 17.5026 70.7712 17.3157 71.3081 17.1895C71.8451 17.0632 72.3923 16.9672 72.9497 16.9016C73.6554 16.8208 74.2282 16.7551 74.668 16.7046C75.1078 16.6491 75.4274 16.5607 75.6269 16.4395C75.8263 16.3182 75.926 16.1213 75.926 15.8486V15.7955C75.926 15.1339 75.7368 14.6213 75.3584 14.2576C74.9851 13.894 74.4277 13.7122 73.6861 13.7122C72.9139 13.7122 72.3053 13.8814 71.8604 14.2198C71.4206 14.5531 71.1163 14.9243 70.9476 15.3334L68.792 14.8486C69.0477 14.1415 69.4211 13.5708 69.912 13.1364C70.4081 12.697 70.9783 12.3789 71.6226 12.1819C72.267 11.9799 72.9446 11.8789 73.6554 11.8789C74.1259 11.8789 74.6245 11.9344 75.1513 12.0455C75.6831 12.1516 76.1792 12.3486 76.6395 12.6364C77.1048 12.9243 77.4858 13.3359 77.7824 13.8713C78.079 14.4016 78.2273 15.091 78.2273 15.9395V23.6667H75.9874V22.0758H75.8954C75.7471 22.3688 75.5246 22.6566 75.228 22.9395C74.9314 23.2223 74.5504 23.4571 74.085 23.644C73.6196 23.8309 73.0622 23.9243 72.4127 23.9243ZM72.9114 22.1061C73.5455 22.1061 74.0876 21.9824 74.5376 21.7349C74.9927 21.4874 75.3379 21.1642 75.5732 20.7652C75.8135 20.3612 75.9337 19.9294 75.9337 19.4698V17.9698C75.8519 18.0506 75.6934 18.1263 75.4581 18.197C75.228 18.2627 74.9646 18.3208 74.668 18.3713C74.3714 18.4167 74.0825 18.4597 73.8012 18.5001C73.5199 18.5354 73.2847 18.5657 73.0955 18.591C72.6505 18.6465 72.244 18.74 71.8758 18.8713C71.5127 19.0026 71.2212 19.192 71.0013 19.4395C70.7865 19.6819 70.6791 20.0051 70.6791 20.4092C70.6791 20.9698 70.8888 21.394 71.3081 21.6819C71.7275 21.9647 72.2619 22.1061 72.9114 22.1061Z" fill="url(#paint2_linear_29_484)"/>
<path d="M85.8134 23.9016C84.673 23.9016 83.6911 23.6465 82.8677 23.1364C82.0495 22.6213 81.4205 21.9117 80.9807 21.0076C80.5409 20.1036 80.321 19.0682 80.321 17.9016C80.321 16.7198 80.546 15.6768 80.996 14.7728C81.4461 13.8637 82.0802 13.1541 82.8984 12.644C83.7167 12.1339 84.6807 11.8789 85.7904 11.8789C86.6853 11.8789 87.4831 12.043 88.1837 12.3713C88.8844 12.6945 89.4494 13.1491 89.879 13.7349C90.3137 14.3208 90.572 15.0051 90.6538 15.7879H88.4215C88.2988 15.2425 88.0175 14.7728 87.5777 14.3789C87.143 13.9849 86.56 13.7879 85.8287 13.7879C85.1895 13.7879 84.6295 13.9546 84.1488 14.2879C83.6732 14.6162 83.3024 15.0859 83.0365 15.697C82.7706 16.3031 82.6376 17.0203 82.6376 17.8486C82.6376 18.697 82.768 19.4294 83.0288 20.0455C83.2896 20.6617 83.6579 21.139 84.1335 21.4773C84.6142 21.8157 85.1793 21.9849 85.8287 21.9849C86.2634 21.9849 86.6572 21.9066 87.0101 21.7501C87.3681 21.5885 87.6672 21.3587 87.9076 21.0607C88.1531 20.7627 88.3244 20.4041 88.4215 19.9849H90.6538C90.572 20.7374 90.3239 21.4092 89.9097 22.0001C89.4955 22.591 88.9406 23.0556 88.2451 23.394C87.5547 23.7324 86.7441 23.9016 85.8134 23.9016Z" fill="url(#paint3_linear_29_484)"/>
<path d="M98.1746 12.0304V13.8486H91.7387V12.0304H98.1746ZM93.4647 9.24249H95.7583V20.2501C95.7583 20.6895 95.8248 21.0203 95.9577 21.2425C96.0907 21.4597 96.262 21.6087 96.4717 21.6895C96.6865 21.7652 96.9192 21.8031 97.1698 21.8031C97.3539 21.8031 97.5149 21.7905 97.653 21.7652C97.7911 21.74 97.8985 21.7198 97.9752 21.7046L98.3894 23.5758C98.2565 23.6263 98.0672 23.6768 97.8218 23.7273C97.5763 23.7829 97.2695 23.8132 96.9013 23.8182C96.2978 23.8284 95.7353 23.7223 95.2136 23.5001C94.692 23.2778 94.2701 22.9344 93.9479 22.4698C93.6258 22.0051 93.4647 21.4218 93.4647 20.7198V9.24249Z" fill="url(#paint4_linear_29_484)"/>
<path d="M101.63 23.7804C101.328 23.7804 101.067 23.6743 100.847 23.4622C100.633 23.245 100.525 22.9874 100.525 22.6895C100.525 22.3864 100.633 22.1289 100.847 21.9167C101.067 21.7046 101.328 21.5986 101.63 21.5986C101.937 21.5986 102.198 21.7046 102.412 21.9167C102.627 22.1289 102.735 22.3864 102.735 22.6895C102.735 22.8864 102.683 23.0682 102.581 23.2349C102.484 23.4016 102.351 23.5354 102.182 23.6364C102.019 23.7324 101.834 23.7804 101.63 23.7804Z" fill="url(#paint5_linear_29_484)"/>
<path d="M110.758 12.0304V13.2046H104.966V12.0304H110.758ZM106.777 23.6667V10.3258C106.777 9.69956 106.922 9.17178 107.214 8.74249C107.51 8.3132 107.897 7.98744 108.372 7.76522C108.848 7.543 109.351 7.43188 109.883 7.43188C110.241 7.43188 110.538 7.46219 110.773 7.52279C111.014 7.57835 111.203 7.63391 111.341 7.68946L110.942 8.87128C110.84 8.84098 110.714 8.80562 110.566 8.76522C110.418 8.72481 110.231 8.70461 110.006 8.70461C109.413 8.70461 108.955 8.86875 108.633 9.19704C108.311 9.52532 108.15 9.99502 108.15 10.6061L108.142 23.6667H106.777Z" fill="url(#paint6_linear_29_484)"/>
<path d="M120.538 19.2198V12.0304H121.903V23.6667H120.538V21.7349H120.43C120.154 22.3309 119.717 22.8284 119.119 23.2273C118.52 23.6213 117.789 23.8182 116.925 23.8182C116.173 23.8182 115.506 23.6566 114.923 23.3334C114.34 23.0051 113.882 22.5253 113.549 21.894C113.217 21.2627 113.051 20.4874 113.051 19.5682V12.0304H114.416V19.4849C114.416 20.394 114.687 21.1263 115.229 21.6819C115.772 22.2324 116.467 22.5076 117.316 22.5076C117.848 22.5076 118.359 22.3814 118.85 22.1289C119.341 21.8763 119.745 21.5076 120.062 21.0228C120.379 20.5329 120.538 19.9319 120.538 19.2198Z" fill="url(#paint7_linear_29_484)"/>
<path d="M126.452 16.394V23.6667H125.086V12.0304H126.413V13.8561H126.536C126.812 13.2602 127.242 12.7829 127.825 12.4243C128.413 12.0607 129.139 11.8789 130.003 11.8789C130.796 11.8789 131.491 12.043 132.09 12.3713C132.693 12.6945 133.161 13.1718 133.494 13.8031C133.831 14.4344 134 15.2097 134 16.1289V23.6667H132.634V16.2122C132.634 15.2576 132.363 14.5026 131.821 13.947C131.284 13.3915 130.563 13.1137 129.658 13.1137C129.039 13.1137 128.489 13.245 128.009 13.5076C127.528 13.7703 127.147 14.1491 126.866 14.644C126.59 15.1339 126.452 15.7172 126.452 16.394Z" fill="url(#paint8_linear_29_484)"/>
<path d="M29.9703 10.3716C29.582 10.2411 29.1909 10.1194 28.797 10.0068C28.8623 9.74511 28.9226 9.48193 28.9778 9.21726C29.8662 4.96306 29.2853 1.53578 27.3025 0.407562C25.404 -0.675052 22.2905 0.453169 19.1497 3.15073C18.8408 3.4169 18.5384 3.69104 18.2422 3.97316C18.0447 3.78575 17.8422 3.60232 17.6347 3.42288C14.3427 0.538402 11.0431 -0.676548 9.06262 0.455412C7.16413 1.54027 6.5999 4.76194 7.39955 8.79408C7.47954 9.19283 7.5694 9.58984 7.66913 9.98511C7.2021 10.1159 6.75102 10.2558 6.31969 10.4038C2.465 11.7309 0 13.8116 0 15.9694C0 18.1989 2.64573 20.4344 6.66521 21.7899C6.99124 21.8991 7.32031 22.0005 7.65242 22.0942C7.54459 22.5174 7.44916 22.9453 7.36613 23.378C6.60674 27.3406 7.19907 30.486 9.09376 31.5641C11.0507 32.6774 14.3336 31.5335 17.5337 28.7746C17.7868 28.5563 18.0399 28.3257 18.2931 28.083C18.613 28.3875 18.9421 28.6831 19.2803 28.9697C22.3786 31.6 25.4382 32.6624 27.3299 31.5813C29.2853 30.4643 29.9209 27.0849 29.0955 22.9735C29.0322 22.6595 28.9593 22.339 28.8768 22.012C29.1076 21.9447 29.3337 21.8752 29.5549 21.8034C33.7316 20.4374 36.4525 18.2288 36.4525 15.9716C36.451 13.8034 33.907 11.7092 29.9703 10.3716ZM20.1741 4.30961C22.8646 1.99859 25.3797 1.08644 26.5264 1.7384C27.7468 2.43298 28.2214 5.23372 27.4544 8.90698C27.4038 9.14623 27.3491 9.38473 27.2904 9.62249C25.6847 9.26292 24.0565 9.00915 22.4166 8.86287C21.4776 7.53119 20.4483 6.26351 19.3357 5.06848C19.6081 4.8083 19.887 4.55534 20.1726 4.30961H20.1741ZM10.7629 17.8131C11.0925 18.4412 11.437 19.0615 11.7964 19.6741C12.1625 20.2991 12.5439 20.9149 12.9409 21.5215C11.8124 21.4007 10.6911 21.2228 9.58129 20.9884C9.90327 19.9626 10.2997 18.8972 10.7629 17.8131ZM10.7629 14.1997C10.3073 13.1387 9.9215 12.095 9.60483 11.0872C10.6452 10.8576 11.7539 10.67 12.9097 10.5279C12.5224 11.123 12.1498 11.7269 11.7919 12.3395C11.434 12.9521 11.0902 13.5721 10.7606 14.1997H10.7629ZM11.5906 16.0068C12.0706 15.0214 12.5875 14.0549 13.1413 13.1073C13.6947 12.1603 14.2837 11.2349 14.9084 10.3313C15.9929 10.2505 17.1046 10.2079 18.2278 10.2079C19.3509 10.2079 20.4695 10.2505 21.5532 10.332C22.1713 11.2337 22.7568 12.1558 23.3096 13.0984C23.8625 14.0409 24.3862 15.0029 24.8808 15.9843C24.3928 16.9732 23.8703 17.9437 23.3134 18.8957C22.7611 19.8428 22.1789 20.7709 21.5668 21.68C20.4847 21.7548 19.3646 21.7959 18.2255 21.7959C17.0864 21.7959 15.9875 21.7608 14.9251 21.6927C14.2959 20.7861 13.702 19.8567 13.1436 18.9047C12.5852 17.9527 12.0668 16.9867 11.5884 16.0068H11.5906ZM24.6614 19.6636C25.0284 19.0365 25.3808 18.4013 25.7184 17.7578C26.1813 18.7911 26.5899 19.8472 26.9426 20.9219C25.8197 21.1708 24.6844 21.3618 23.5412 21.4939C23.927 20.8912 24.3004 20.2812 24.6614 19.6636ZM25.7032 14.2004C25.3671 13.5699 25.0175 12.9468 24.6545 12.3313C24.3001 11.7242 23.9308 11.1245 23.5466 10.5324C24.7092 10.6774 25.8247 10.8703 26.8704 11.1058C26.5342 12.156 26.1447 13.1888 25.7032 14.2004ZM18.2429 6.1668C19.0012 6.98257 19.7172 7.83549 20.3882 8.72231C18.953 8.65502 17.5167 8.65502 16.0794 8.72231C16.7879 7.79969 17.5132 6.94362 18.2429 6.1668ZM9.84632 1.78401C11.0659 1.08719 13.7625 2.08307 16.6049 4.57054C16.7864 4.72979 16.9694 4.89652 17.1517 5.06923C16.0334 6.26408 14.9968 7.53066 14.0488 8.86062C12.4125 9.00578 10.7875 9.25552 9.18412 9.60828C9.09148 9.24143 9.00794 8.87209 8.93352 8.50025C8.24627 5.04381 8.70115 2.43821 9.84632 1.78401ZM8.06857 20.6139C7.76481 20.5286 7.46485 20.4362 7.16869 20.3365C5.39171 19.7383 3.92379 18.9578 2.91608 18.1077C2.01392 17.3458 1.55676 16.5855 1.55676 15.9694C1.55676 14.6602 3.53574 12.99 6.83607 11.8572C7.2507 11.7152 7.66888 11.5854 8.0906 11.4677C8.58075 13.0186 9.17437 14.5359 9.86758 16.0098C9.1661 17.504 8.56514 19.042 8.06857 20.6139ZM16.5077 27.6172C15.093 28.8374 13.6759 29.7024 12.4267 30.1383C11.3044 30.5294 10.4105 30.5406 9.87062 30.2333C8.72089 29.5791 8.24247 27.0527 8.89479 23.6643C8.97225 23.2656 9.06085 22.8668 9.16058 22.4681C10.78 22.8115 12.4213 23.0461 14.0731 23.1701C15.0304 24.507 16.0755 25.7808 17.2018 26.9832C16.9755 27.2023 16.7439 27.4131 16.5077 27.6172ZM18.2862 25.8811C17.5481 25.0953 16.8115 24.2258 16.0931 23.2912C16.7912 23.3182 17.502 23.3316 18.2255 23.3316C18.9682 23.3316 19.7033 23.3159 20.4277 23.2838C19.7592 24.1848 19.0444 25.0517 18.2862 25.8811ZM27.7422 28.0187C27.525 29.1731 27.0884 29.9432 26.5485 30.2512C25.3995 30.9077 22.9428 30.0546 20.2941 27.8049C19.9903 27.5477 19.6866 27.2718 19.3775 26.9824C20.4819 25.7753 21.5025 24.4964 22.4325 23.1544C24.0935 23.0159 25.7427 22.7648 27.3686 22.403C27.443 22.6991 27.5088 22.9892 27.566 23.2733C27.9313 25.0901 27.9837 26.7335 27.7422 28.0187ZM29.0636 20.3447C28.8646 20.4097 28.6596 20.4726 28.4515 20.5339C27.9417 18.9757 27.3249 17.4534 26.6054 15.9776C27.2979 14.5215 27.8905 13.0213 28.3794 11.4872C28.7522 11.5941 29.1144 11.7062 29.463 11.8251C32.8362 12.9705 34.8942 14.6662 34.8942 15.9694C34.8942 17.36 32.6715 19.1649 29.0636 20.3447Z" fill="#00D8FF"/>
<path d="M18.2255 19.1813C18.8718 19.1834 19.5041 18.9966 20.0425 18.6446C20.5809 18.2926 21.0011 17.7912 21.2499 17.204C21.4987 16.6167 21.5648 15.97 21.4401 15.3456C21.3153 14.7213 21.0051 14.1475 20.5489 13.6968C20.0926 13.2461 19.5108 12.9389 18.8771 12.814C18.2434 12.6891 17.5863 12.7522 16.989 12.9952C16.3917 13.2382 15.8811 13.6503 15.5218 14.1792C15.1625 14.7081 14.9707 15.3301 14.9707 15.9664C14.9698 16.3879 15.0533 16.8056 15.2164 17.1953C15.3795 17.5851 15.6191 17.9394 15.9214 18.238C16.2236 18.5365 16.5827 18.7735 16.9781 18.9354C17.3734 19.0973 17.7973 19.1808 18.2255 19.1813Z" fill="#00D8FF"/>
<defs>
<linearGradient id="paint0_linear_29_484" x1="43.5786" y1="15.7313" x2="134" y2="15.7313" gradientUnits="userSpaceOnUse">
<stop stop-color="#00D8FF"/>
<stop offset="1" stop-color="#00FF94"/>
</linearGradient>
<linearGradient id="paint1_linear_29_484" x1="43.5786" y1="15.7313" x2="134" y2="15.7313" gradientUnits="userSpaceOnUse">
<stop stop-color="#00D8FF"/>
<stop offset="1" stop-color="#00FF94"/>
</linearGradient>
<linearGradient id="paint2_linear_29_484" x1="43.5786" y1="15.7313" x2="134" y2="15.7313" gradientUnits="userSpaceOnUse">
<stop stop-color="#00D8FF"/>
<stop offset="1" stop-color="#00FF94"/>
</linearGradient>
<linearGradient id="paint3_linear_29_484" x1="43.5786" y1="15.7313" x2="134" y2="15.7313" gradientUnits="userSpaceOnUse">
<stop stop-color="#00D8FF"/>
<stop offset="1" stop-color="#00FF94"/>
</linearGradient>
<linearGradient id="paint4_linear_29_484" x1="43.5786" y1="15.7313" x2="134" y2="15.7313" gradientUnits="userSpaceOnUse">
<stop stop-color="#00D8FF"/>
<stop offset="1" stop-color="#00FF94"/>
</linearGradient>
<linearGradient id="paint5_linear_29_484" x1="43.5786" y1="15.7313" x2="134" y2="15.7313" gradientUnits="userSpaceOnUse">
<stop stop-color="#00D8FF"/>
<stop offset="1" stop-color="#00FF94"/>
</linearGradient>
<linearGradient id="paint6_linear_29_484" x1="43.5786" y1="15.7313" x2="134" y2="15.7313" gradientUnits="userSpaceOnUse">
<stop stop-color="#00D8FF"/>
<stop offset="1" stop-color="#00FF94"/>
</linearGradient>
<linearGradient id="paint7_linear_29_484" x1="43.5786" y1="15.7313" x2="134" y2="15.7313" gradientUnits="userSpaceOnUse">
<stop stop-color="#00D8FF"/>
<stop offset="1" stop-color="#00FF94"/>
</linearGradient>
<linearGradient id="paint8_linear_29_484" x1="43.5786" y1="15.7313" x2="134" y2="15.7313" gradientUnits="userSpaceOnUse">
<stop stop-color="#00D8FF"/>
<stop offset="1" stop-color="#00FF94"/>
</linearGradient>
</defs>
</svg>
