<svg width="132" height="32" viewBox="0 0 132 32" fill="none" xmlns="http://www.w3.org/2000/svg">
<path d="M42.9282 23.6667V8.15158H48.4445C49.6434 8.15158 50.6384 8.35865 51.4293 8.77279C52.2252 9.18694 52.8197 9.76017 53.2126 10.4925C53.6055 11.2198 53.802 12.0607 53.802 13.0152C53.802 13.9647 53.603 14.8006 53.205 15.5228C52.8121 16.24 52.2177 16.798 51.4217 17.197C50.6308 17.596 49.6359 17.7955 48.4369 17.7955H44.2582V15.7804H48.2253C48.981 15.7804 49.5956 15.6718 50.0691 15.4546C50.5477 15.2374 50.8978 14.9218 51.1195 14.5076C51.3411 14.0935 51.4519 13.596 51.4519 13.0152C51.4519 12.4294 51.3386 11.9218 51.1119 11.4925C50.8902 11.0632 50.5401 10.7349 50.0615 10.5076C49.588 10.2753 48.9659 10.1592 48.1951 10.1592H45.2632V23.6667H42.9282ZM50.5678 16.6667L54.3914 23.6667H51.7315L47.9835 16.6667H50.5678Z" fill="url(#paint0_linear_1063_9)"/>
<path d="M60.8932 23.9016C59.7497 23.9016 58.7648 23.6566 57.9387 23.1667C57.1175 22.6718 56.4828 21.9773 56.0344 21.0834C55.5911 20.1844 55.3695 19.1314 55.3695 17.9243C55.3695 16.7324 55.5911 15.6819 56.0344 14.7728C56.4828 13.8637 57.1074 13.1541 57.9084 12.644C58.7145 12.1339 59.6565 11.8789 60.7346 11.8789C61.3895 11.8789 62.0242 11.9874 62.6388 12.2046C63.2534 12.4218 63.805 12.7627 64.2937 13.2273C64.7823 13.692 65.1677 14.2955 65.4498 15.0379C65.7319 15.7753 65.873 16.6718 65.873 17.7273V18.5304H56.6465V16.8334H63.6589C63.6589 16.2374 63.538 15.7097 63.2962 15.2501C63.0544 14.7854 62.7144 14.4193 62.2761 14.1516C61.8428 13.8839 61.334 13.7501 60.7497 13.7501C60.1149 13.7501 59.5608 13.9066 59.0872 14.2198C58.6187 14.5278 58.256 14.9319 57.9991 15.4319C57.7472 15.9268 57.6213 16.4647 57.6213 17.0455V18.3713C57.6213 19.1491 57.7573 19.8107 58.0293 20.3561C58.3064 20.9016 58.6918 21.3182 59.1855 21.6061C59.6792 21.889 60.256 22.0304 60.9159 22.0304C61.3441 22.0304 61.7345 21.9698 62.0872 21.8486C62.4398 21.7223 62.7446 21.5354 63.0015 21.2879C63.2584 21.0405 63.4549 20.7349 63.5909 20.3713L65.7294 20.7576C65.5581 21.389 65.2508 21.942 64.8075 22.4167C64.3692 22.8864 63.8176 23.2526 63.1526 23.5152C62.4927 23.7728 61.7396 23.9016 60.8932 23.9016Z" fill="url(#paint1_linear_1063_9)"/>
<path d="M71.332 23.9243C70.5965 23.9243 69.9315 23.7879 69.3371 23.5152C68.7426 23.2374 68.2716 22.8359 67.924 22.3107C67.5815 21.7854 67.4102 21.1415 67.4102 20.3789C67.4102 19.7223 67.5361 19.1819 67.788 18.7576C68.0399 18.3334 68.3799 17.9975 68.8081 17.7501C69.2363 17.5026 69.7149 17.3157 70.2439 17.1895C70.7728 17.0632 71.3119 16.9672 71.861 16.9016C72.5562 16.8208 73.1204 16.7551 73.5536 16.7046C73.9868 16.6491 74.3017 16.5607 74.4982 16.4395C74.6946 16.3182 74.7929 16.1213 74.7929 15.8486V15.7955C74.7929 15.1339 74.6065 14.6213 74.2337 14.2576C73.8659 13.894 73.3168 13.7122 72.5864 13.7122C71.8257 13.7122 71.2262 13.8814 70.7879 14.2198C70.3547 14.5531 70.055 14.9243 69.8887 15.3334L67.7653 14.8486C68.0172 14.1415 68.385 13.5708 68.8686 13.1364C69.3572 12.697 69.9189 12.3789 70.5537 12.1819C71.1884 11.9799 71.8559 11.8789 72.5561 11.8789C73.0196 11.8789 73.5108 11.9344 74.0297 12.0455C74.5536 12.1516 75.0422 12.3486 75.4956 12.6364C75.9541 12.9243 76.3294 13.3359 76.6215 13.8713C76.9137 14.4016 77.0598 15.091 77.0598 15.9395V23.6667H74.8533V22.0758H74.7626C74.6166 22.3688 74.3974 22.6566 74.1052 22.9395C73.813 23.2223 73.4377 23.4571 72.9793 23.644C72.5209 23.8309 71.9718 23.9243 71.332 23.9243ZM71.8232 22.1061C72.4478 22.1061 72.9818 21.9824 73.4251 21.7349C73.8735 21.4874 74.2135 21.1642 74.4453 20.7652C74.682 20.3612 74.8004 19.9294 74.8004 19.4698V17.9698C74.7198 18.0506 74.5637 18.1263 74.3319 18.197C74.1052 18.2627 73.8458 18.3208 73.5536 18.3713C73.2614 18.4167 72.9768 18.4597 72.6997 18.5001C72.4227 18.5354 72.1909 18.5657 72.0045 18.591C71.5663 18.6465 71.1658 18.74 70.803 18.8713C70.4454 19.0026 70.1582 19.192 69.9416 19.4395C69.73 19.6819 69.6242 20.0051 69.6242 20.4092C69.6242 20.9698 69.8308 21.394 70.2439 21.6819C70.657 21.9647 71.1834 22.1061 71.8232 22.1061Z" fill="url(#paint2_linear_1063_9)"/>
<path d="M84.5327 23.9016C83.4093 23.9016 82.442 23.6465 81.631 23.1364C80.8249 22.6213 80.2053 21.9117 79.7721 21.0076C79.3388 20.1036 79.1222 19.0682 79.1222 17.9016C79.1222 16.7198 79.3439 15.6768 79.7872 14.7728C80.2305 13.8637 80.8552 13.1541 81.6612 12.644C82.4672 12.1339 83.4168 11.8789 84.51 11.8789C85.3916 11.8789 86.1775 12.043 86.8676 12.3713C87.5578 12.6945 88.1144 13.1491 88.5376 13.7349C88.9658 14.3208 89.2202 15.0051 89.3008 15.7879H87.1019C86.981 15.2425 86.7039 14.7728 86.2706 14.3789C85.8424 13.9849 85.2682 13.7879 84.5478 13.7879C83.9181 13.7879 83.3664 13.9546 82.8929 14.2879C82.4244 14.6162 82.0592 15.0859 81.7972 15.697C81.5352 16.3031 81.4043 17.0203 81.4043 17.8486C81.4043 18.697 81.5327 19.4294 81.7896 20.0455C82.0466 20.6617 82.4093 21.139 82.8778 21.4773C83.3513 21.8157 83.908 21.9849 84.5478 21.9849C84.976 21.9849 85.3639 21.9066 85.7115 21.7501C86.0641 21.5885 86.3588 21.3587 86.5956 21.0607C86.8374 20.7627 87.0061 20.4041 87.1019 19.9849H89.3008C89.2202 20.7374 88.9759 21.4092 88.5678 22.0001C88.1598 22.591 87.6132 23.0556 86.9281 23.394C86.248 23.7324 85.4495 23.9016 84.5327 23.9016Z" fill="url(#paint3_linear_1063_9)"/>
<path d="M96.7094 12.0304V13.8486H90.3695V12.0304H96.7094ZM92.0697 9.24249H94.3291V20.2501C94.3291 20.6895 94.3946 21.0203 94.5256 21.2425C94.6566 21.4597 94.8253 21.6087 95.0319 21.6895C95.2434 21.7652 95.4727 21.8031 95.7195 21.8031C95.9009 21.8031 96.0595 21.7905 96.1956 21.7652C96.3316 21.74 96.4374 21.7198 96.5129 21.7046L96.921 23.5758C96.79 23.6263 96.6036 23.6768 96.3618 23.7273C96.12 23.7829 95.8177 23.8132 95.455 23.8182C94.8606 23.8284 94.3064 23.7223 93.7926 23.5001C93.2788 23.2778 92.8632 22.9344 92.5458 22.4698C92.2284 22.0051 92.0697 21.4218 92.0697 20.7198V9.24249Z" fill="url(#paint4_linear_1063_9)"/>
<path d="M100.113 23.7804C99.8159 23.7804 99.5589 23.6743 99.3423 23.4622C99.1307 23.245 99.0249 22.9874 99.0249 22.6895C99.0249 22.3864 99.1307 22.1289 99.3423 21.9167C99.5589 21.7046 99.8159 21.5986 100.113 21.5986C100.415 21.5986 100.672 21.7046 100.884 21.9167C101.095 22.1289 101.201 22.3864 101.201 22.6895C101.201 22.8864 101.151 23.0682 101.05 23.2349C100.954 23.4016 100.823 23.5354 100.657 23.6364C100.496 23.7324 100.315 23.7804 100.113 23.7804Z" fill="url(#paint5_linear_1063_9)"/>
<path d="M109.105 12.0304V13.2046H103.4V12.0304H109.105ZM105.183 23.6667V10.3258C105.183 9.69956 105.327 9.17178 105.614 8.74249C105.906 8.3132 106.286 7.98744 106.755 7.76522C107.223 7.543 107.719 7.43188 108.243 7.43188C108.596 7.43188 108.888 7.46219 109.12 7.52279C109.357 7.57835 109.543 7.63391 109.679 7.68946L109.286 8.87128C109.185 8.84098 109.062 8.80562 108.916 8.76522C108.77 8.72481 108.586 8.70461 108.364 8.70461C107.78 8.70461 107.329 8.86875 107.012 9.19704C106.694 9.52532 106.536 9.99502 106.536 10.6061L106.528 23.6667H105.183Z" fill="url(#paint6_linear_1063_9)"/>
<path d="M118.739 19.2198V12.0304H120.084V23.6667H118.739V21.7349H118.633C118.361 22.3309 117.93 22.8284 117.341 23.2273C116.751 23.6213 116.031 23.8182 115.18 23.8182C114.439 23.8182 113.782 23.6566 113.207 23.3334C112.633 23.0051 112.182 22.5253 111.855 21.894C111.527 21.2627 111.364 20.4874 111.364 19.5682V12.0304H112.709V19.4849C112.709 20.394 112.976 21.1263 113.51 21.6819C114.044 22.2324 114.729 22.5076 115.565 22.5076C116.089 22.5076 116.593 22.3814 117.076 22.1289C117.56 21.8763 117.958 21.5076 118.27 21.0228C118.583 20.5329 118.739 19.9319 118.739 19.2198Z" fill="url(#paint7_linear_1063_9)"/>
<path d="M124.564 16.394V23.6667H123.219V12.0304H124.526V13.8561H124.647C124.919 13.2602 125.343 12.7829 125.917 12.4243C126.496 12.0607 127.212 11.8789 128.063 11.8789C128.844 11.8789 129.529 12.043 130.118 12.3713C130.713 12.6945 131.174 13.1718 131.501 13.8031C131.834 14.4344 132 15.2097 132 16.1289V23.6667H130.655V16.2122C130.655 15.2576 130.388 14.5026 129.854 13.947C129.325 13.3915 128.615 13.1137 127.723 13.1137C127.113 13.1137 126.572 13.245 126.098 13.5076C125.625 13.7703 125.249 14.1491 124.972 14.644C124.7 15.1339 124.564 15.7172 124.564 16.394Z" fill="url(#paint8_linear_1063_9)"/>
<path d="M29.523 10.3716C29.1405 10.2411 28.7552 10.1194 28.3672 10.0068C28.4316 9.74511 28.4909 9.48193 28.5453 9.21726C29.4205 4.96306 28.8482 1.53578 26.895 0.407562C25.0249 -0.675052 21.9578 0.453169 18.8639 3.15073C18.5596 3.4169 18.2617 3.69104 17.9699 3.97316C17.7754 3.78575 17.5759 3.60232 17.3715 3.42288C14.1286 0.538402 10.8783 -0.676548 8.92736 0.455412C7.05721 1.54027 6.5014 4.76194 7.28911 8.79408C7.3679 9.19283 7.45642 9.58984 7.55467 9.98511C7.09461 10.1159 6.65026 10.2558 6.22536 10.4038C2.42821 11.7309 0 13.8116 0 15.9694C0 18.1989 2.60624 20.4344 6.56573 21.7899C6.8869 21.8991 7.21106 22.0005 7.53821 22.0942C7.43199 22.5174 7.33798 22.9453 7.25619 23.378C6.50813 27.3406 7.09162 30.486 8.95803 31.5641C10.8858 32.6774 14.1197 31.5335 17.272 28.7746C17.5213 28.5563 17.7707 28.3257 18.02 28.083C18.3352 28.3875 18.6594 28.6831 18.9925 28.9697C22.0446 31.6 25.0585 32.6624 26.922 31.5813C28.8482 30.4643 29.4744 27.0849 28.6612 22.9735C28.5989 22.6595 28.5271 22.339 28.4458 22.012C28.6732 21.9447 28.8959 21.8752 29.1138 21.8034C33.2281 20.4374 35.9084 18.2288 35.9084 15.9716C35.9069 13.8034 33.4009 11.7092 29.523 10.3716ZM19.873 4.30961C22.5234 1.99859 25.0009 1.08644 26.1305 1.7384C27.3327 2.43298 27.8002 5.23372 27.0446 8.90698C26.9948 9.14623 26.9409 9.38473 26.8831 9.62249C25.3014 9.26292 23.6975 9.00915 22.082 8.86287C21.1571 7.53119 20.1431 6.26351 19.0471 5.06848C19.3154 4.8083 19.5902 4.55534 19.8715 4.30961H19.873ZM10.6023 17.8131C10.9269 18.4412 11.2663 19.0615 11.6204 19.6741C11.9809 20.2991 12.3567 20.9149 12.7477 21.5215C11.6361 21.4007 10.5315 21.2228 9.43829 20.9884C9.75546 19.9626 10.146 18.8972 10.6023 17.8131ZM10.6023 14.1997C10.1534 13.1387 9.77342 12.095 9.46148 11.0872C10.4863 10.8576 11.5785 10.67 12.717 10.5279C12.3355 11.123 11.9685 11.7269 11.6159 12.3395C11.2633 12.9521 10.9247 13.5721 10.6 14.1997H10.6023ZM11.4177 16.0068C11.8904 15.0214 12.3996 14.0549 12.9452 13.1073C13.4903 12.1603 14.0705 11.2349 14.6859 10.3313C15.7542 10.2505 16.8493 10.2079 17.9557 10.2079C19.0621 10.2079 20.164 10.2505 21.2315 10.332C21.8404 11.2337 22.4171 12.1558 22.9617 13.0984C23.5063 14.0409 24.0222 15.0029 24.5095 15.9843C24.0287 16.9732 23.5141 17.9437 22.9655 18.8957C22.4214 19.8428 21.8479 20.7709 21.2449 21.68C20.1789 21.7548 19.0756 21.7959 17.9535 21.7959C16.8314 21.7959 15.7489 21.7608 14.7024 21.6927C14.0825 20.7861 13.4975 19.8567 12.9474 18.9047C12.3974 17.9527 11.8867 16.9867 11.4154 16.0068H11.4177ZM24.2933 19.6636C24.6548 19.0365 25.0019 18.4013 25.3346 17.7578C25.7906 18.7911 26.1931 19.8472 26.5405 20.9219C25.4343 21.1708 24.316 21.3618 23.1899 21.4939C23.5699 20.8912 23.9377 20.2812 24.2933 19.6636ZM25.3196 14.2004C24.9885 13.5699 24.6441 12.9468 24.2865 12.3313C23.9375 11.7242 23.5736 11.1245 23.1951 10.5324C24.3404 10.6774 25.4393 10.8703 26.4694 11.1058C26.1382 12.156 25.7545 13.1888 25.3196 14.2004V14.2004ZM17.9707 6.1668C18.7176 6.98257 19.423 7.83549 20.0839 8.72231C18.6701 8.65502 17.2553 8.65502 15.8394 8.72231C16.5374 7.79969 17.2518 6.94362 17.9707 6.1668ZM9.69936 1.78401C10.9007 1.08719 13.5571 2.08307 16.3571 4.57054C16.5359 4.72979 16.7162 4.89652 16.8957 5.06923C15.7941 6.26408 14.773 7.53066 13.8391 8.86062C12.2272 9.00578 10.6265 9.25552 9.04705 9.60828C8.95579 9.24143 8.8735 8.87209 8.80019 8.50025C8.12319 5.04381 8.57128 2.43821 9.69936 1.78401ZM7.94815 20.6139C7.64892 20.5286 7.35344 20.4362 7.0617 20.3365C5.31123 19.7384 3.86523 18.9578 2.87255 18.1077C1.98386 17.3458 1.53353 16.5855 1.53353 15.9694C1.53353 14.6602 3.48297 12.99 6.73405 11.8572C7.14249 11.7152 7.55442 11.5854 7.96984 11.4677C8.45268 13.0186 9.03744 14.5359 9.72031 16.0098C9.0293 17.504 8.4373 19.042 7.94815 20.6139V20.6139ZM16.2614 27.6172C14.8677 28.8374 13.4718 29.7024 12.2413 30.1383C11.1356 30.5293 10.2552 30.5406 9.7233 30.2333C8.59073 29.5791 8.11945 27.0527 8.76204 23.6643C8.83834 23.2656 8.92562 22.8668 9.02386 22.4681C10.6191 22.8115 12.2359 23.0461 13.8631 23.1701C14.806 24.507 15.8356 25.7808 16.9451 26.9832C16.7222 27.2023 16.494 27.4131 16.2614 27.6172ZM18.0133 25.8811C17.2862 25.0953 16.5606 24.2258 15.8529 23.2912C16.5406 23.3182 17.2408 23.3316 17.9535 23.3316C18.6851 23.3316 19.4092 23.3159 20.1228 23.2838C19.4643 24.1848 18.7602 25.0517 18.0133 25.8811V25.8811ZM27.3282 28.0187C27.1142 29.1731 26.6841 29.9432 26.1522 30.2512C25.0204 30.9077 22.6004 30.0546 19.9912 27.8049C19.692 27.5477 19.3927 27.2718 19.0883 26.9824C20.1762 25.7753 21.1816 24.4964 22.0977 23.1544C23.7339 23.0159 25.3585 22.7648 26.9601 22.403C27.0334 22.6991 27.0983 22.9892 27.1546 23.2733C27.5144 25.0901 27.566 26.7335 27.3282 28.0187V28.0187ZM28.6298 20.3447C28.4338 20.4097 28.2318 20.4726 28.0269 20.5339C27.5246 18.9757 26.9171 17.4534 26.2083 15.9776C26.8905 14.5215 27.4743 13.0213 27.9558 11.4872C28.3231 11.5941 28.6799 11.7062 29.0233 11.8251C32.3462 12.9705 34.3734 14.6662 34.3734 15.9694C34.3734 17.36 32.1838 19.1649 28.6298 20.3447V20.3447Z" fill="#00D8FF"/>
<path d="M17.9533 19.1813C18.5899 19.1834 19.2128 18.9966 19.7432 18.6446C20.2735 18.2926 20.6875 17.7912 20.9325 17.204C21.1776 16.6167 21.2428 15.97 21.1199 15.3456C20.9969 14.7213 20.6914 14.1475 20.242 13.6968C19.7925 13.2461 19.2194 12.9389 18.5951 12.814C17.9709 12.6891 17.3236 12.7522 16.7352 12.9952C16.1468 13.2382 15.6438 13.6503 15.2899 14.1792C14.936 14.7081 14.7471 15.3301 14.7471 15.9664C14.7462 16.3879 14.8284 16.8056 14.9891 17.1953C15.1498 17.5851 15.3858 17.9394 15.6835 18.238C15.9813 18.5365 16.335 18.7735 16.7245 18.9354C17.1139 19.0973 17.5315 19.1808 17.9533 19.1813Z" fill="#00D8FF"/>
<defs>
<linearGradient id="paint0_linear_1063_9" x1="42.9282" y1="15.6249" x2="132" y2="15.6249" gradientUnits="userSpaceOnUse">
<stop stop-color="#00D8FF"/>
<stop offset="1" stop-color="#FF00C7"/>
</linearGradient>
<linearGradient id="paint1_linear_1063_9" x1="42.9282" y1="15.6249" x2="132" y2="15.6249" gradientUnits="userSpaceOnUse">
<stop stop-color="#00D8FF"/>
<stop offset="1" stop-color="#FF00C7"/>
</linearGradient>
<linearGradient id="paint2_linear_1063_9" x1="42.9282" y1="15.6249" x2="132" y2="15.6249" gradientUnits="userSpaceOnUse">
<stop stop-color="#00D8FF"/>
<stop offset="1" stop-color="#FF00C7"/>
</linearGradient>
<linearGradient id="paint3_linear_1063_9" x1="42.9282" y1="15.6249" x2="132" y2="15.6249" gradientUnits="userSpaceOnUse">
<stop stop-color="#00D8FF"/>
<stop offset="1" stop-color="#FF00C7"/>
</linearGradient>
<linearGradient id="paint4_linear_1063_9" x1="42.9282" y1="15.6249" x2="132" y2="15.6249" gradientUnits="userSpaceOnUse">
<stop stop-color="#00D8FF"/>
<stop offset="1" stop-color="#FF00C7"/>
</linearGradient>
<linearGradient id="paint5_linear_1063_9" x1="42.9282" y1="15.6249" x2="132" y2="15.6249" gradientUnits="userSpaceOnUse">
<stop stop-color="#00D8FF"/>
<stop offset="1" stop-color="#FF00C7"/>
</linearGradient>
<linearGradient id="paint6_linear_1063_9" x1="42.9282" y1="15.6249" x2="132" y2="15.6249" gradientUnits="userSpaceOnUse">
<stop stop-color="#00D8FF"/>
<stop offset="1" stop-color="#FF00C7"/>
</linearGradient>
<linearGradient id="paint7_linear_1063_9" x1="42.9282" y1="15.6249" x2="132" y2="15.6249" gradientUnits="userSpaceOnUse">
<stop stop-color="#00D8FF"/>
<stop offset="1" stop-color="#FF00C7"/>
</linearGradient>
<linearGradient id="paint8_linear_1063_9" x1="42.9282" y1="15.6249" x2="132" y2="15.6249" gradientUnits="userSpaceOnUse">
<stop stop-color="#00D8FF"/>
<stop offset="1" stop-color="#FF00C7"/>
</linearGradient>
</defs>
</svg>
